:SAMPLES-PER-SECOND 30
:FULLY-SPECIFIED
:DEGREES
66
root  3.98187 39.4211 4.58781 -73.9348 -84.0066 66.532
RightUpLeg  -7.05442 6.08569 -17.5225
RightLeg  28.9859 -14.997 -9.02809
RightFoot  3.03408 -1.83531 14.645
RightToes  7.56698e-010 0 -3.6325e-017
Spine  9.47046 -0.385152 -7.49188
Spine1  0.134478 -0.882793 -4.65445
HEad  -2.29828 -1.46377 -4.22735
LeftShoulder1  2.73246 -6.50575 -20.9121
LeftArm  2.05852 6.0327 -50.7049
LeftForeArm  12.4447 -1.66917 -15.8959
LeftHand  -0.279371 2.66249 11.5911
RightShoulder  1.52433 2.73387 17.924
RightArm  0.179801 -6.9413 58.1382
RightForeArm  15.2681 11.3817 12.0469
RightHand  -0.673338 0.0784095 -14.3297
LeftUpLeg  1.42868 6.51065 -4.98764
LeftLeg  14.8177 8.51165 1.9013
LeftFoot  -8.43089 0.117855 -2.71793
LeftToes  -3.13779e-010 -2.47553e-011 -5.36621e-011
67
root  4.02919 39.4542 4.62632 -79.1133 -84.6935 71.9341
RightUpLeg  -7.1008 5.31499 -17.3246
RightLeg  27.7754 -13.7331 -7.93436
RightFoot  3.29228 -1.86663 14.642
RightToes  7.56698e-010 0 -3.6325e-017
Spine  9.73919 -0.302988 -7.44938
Spine1  -0.230705 -0.786048 -4.66818
HEad  -2.611 -2.0929 -3.42457
LeftShoulder1  2.68844 -6.42001 -20.69
LeftArm  3.42494 4.85116 -50.6718
LeftForeArm  10.3239 -3.31162 -15.6971
LeftHand  -0.274666 2.71999 11.6282
RightShoulder  1.54871 2.81477 18.0022
RightArm  2.69604 -7.28228 59.0275
RightForeArm  12.6426 13.0645 11.2836
RightHand  -0.714582 0.29327 -14.6446
LeftUpLeg  1.1782 6.73642 -4.5086
LeftLeg  14.7706 8.8684 1.94124
LeftFoot  -8.38394 0.120749 -2.74907
LeftToes  -3.13779e-010 -2.47553e-011 -5.36621e-011
68
root  4.0795 39.481 4.65252 -84.9887 -85.1718 77.9709
RightUpLeg  -6.88778 3.66882 -17.4836
RightLeg  26.1749 -11.048 -6.0653
RightFoot  3.13574 -1.82109 14.4373
RightToes  7.56698e-010 0 -3.6325e-017
Spine  10.1024 -0.182969 -7.34846
Spine1  -0.524751 -0.623435 -4.85703
HEad  -3.06823 -2.82559 -2.67
LeftShoulder1  2.64751 -6.32788 -20.5163
LeftArm  5.13013 3.77539 -50.5668
LeftForeArm  7.12309 -5.51698 -15.2648
LeftHand  -0.292165 2.59937 11.8731
RightShoulder  1.5786 2.90492 18.1339
RightArm  3.58003 -7.20547 59.5372
RightForeArm  12.5478 13.4053 11.1169
RightHand  -0.722433 0.409815 -14.5163
LeftUpLeg  1.02125 6.97035 -4.11617
LeftLeg  14.6711 9.18102 1.90241
LeftFoot  -8.3264 0.123564 -2.78955
LeftToes  -3.13779e-010 -2.47553e-011 -5.36621e-011
69
root  4.11489 39.5101 4.66212 -88.3049 -85.491 81.3666
RightUpLeg  -6.39384 1.70396 -17.7502
RightLeg  24.7238 -7.5434 -3.98249
RightFoot  1.93265 -1.6128 13.9048
RightToes  7.56698e-010 0 -3.6325e-017
Spine  10.4227 -0.0987822 -7.12007
Spine1  -0.556689 -0.47061 -5.13728
HEad  -3.73324 -3.69615 -1.97927
LeftShoulder1  2.63999 -6.32538 -20.4417
LeftArm  7.16381 2.65075 -50.4078
LeftForeArm  3.53218 -7.8225 -14.6393
LeftHand  -0.339063 2.26395 12.3943
RightShoulder  1.58307 2.9072 18.2
RightArm  3.32449 -6.819 59.7747
RightForeArm  14.2761 12.8614 11.4063
RightHand  -0.694855 0.44472 -13.8844
LeftUpLeg  1.01062 7.17291 -3.75962
LeftLeg  14.4747 9.25956 1.79108
LeftFoot  -8.29509 0.120884 -2.75157
LeftToes  -3.13779e-010 -2.47553e-011 -5.36621e-011
70
root  4.11707 39.5436 4.63362 -88.9789 -85.7294 82.1852
RightUpLeg  -5.85885 0.426526 -17.8724
RightLeg  23.9383 -5.09221 -2.67467
RightFoot  0.0447018 -1.31322 13.1188
RightToes  7.56698e-010 0 -3.6325e-017
Spine  10.4159 -0.0295759 -6.86686
Spine1  -0.262355 -0.316183 -5.37563
HEad  -4.49779 -4.63165 -1.45022
LeftShoulder1  2.66327 -6.39472 -20.4921
LeftArm  9.20725 1.44659 -50.1846
LeftForeArm  0.147685 -9.79743 -13.959
LeftHand  -0.39022 1.96007 13.077
RightShoulder  1.56017 2.83777 18.1019
RightArm  1.88756 -6.22329 59.8663
RightForeArm  17.0674 11.4955 12.0664
RightHand  -0.635482 0.226352 -13.1884
LeftUpLeg  0.997375 7.30084 -3.42545
LeftLeg  14.2022 9.13825 1.66766
LeftFoot  -8.22372 0.121122 -2.76247
LeftToes  -3.13779e-010 -2.47553e-011 -5.36621e-011
71
root  4.08005 39.5804 4.5512 -89.796 -85.8895 83.2869
RightUpLeg  -5.32899 0.416594 -17.7322
RightLeg  23.4958 -5.10026 -2.63174
RightFoot  -1.13627 -1.11011 12.311
RightToes  7.56698e-010 0 -3.6325e-017
Spine  10.0559 0.0967393 -6.7438
Spine1  0.118807 -0.113272 -5.4859
HEad  -5.01332 -5.60831 -1.1675
LeftShoulder1  2.68373 -6.43251 -20.6031
LeftArm  10.8222 0.382021 -49.9339
LeftForeArm  -2.38398 -11.2188 -13.3692
LeftHand  -0.419474 1.90854 13.8745
RightShoulder  1.54117 2.80069 17.9323
RightArm  -1.09753 -5.5553 59.8108
RightForeArm  20.7666 9.10718 12.9785
RightHand  -0.581277 -0.196729 -13.0211
LeftUpLeg  0.925427 7.34438 -3.14076
LeftLeg  13.8406 9.07688 1.61122
LeftFoot  -8.01412 0.13289 -2.95271
LeftToes  -3.13779e-010 -2.47553e-011 -5.36621e-011
72
root  4.00397 39.6186 4.42079 -91.5874 -85.9698 85.4549
RightUpLeg  -4.56791 1.42733 -17.354
RightLeg  22.5228 -6.99339 -3.37654
RightFoot  -1.02797 -1.09681 12.0312
RightToes  7.56698e-010 0 -3.6325e-017
Spine  9.56982 0.256441 -6.6943
Spine1  0.225167 0.119018 -5.56815
HEad  -4.88103 -6.59682 -1.08315
LeftShoulder1  2.67513 -6.39381 -20.623
LeftArm  11.6528 -0.213636 -49.7385
LeftForeArm  -3.58626 -12.064 -12.9399
LeftHand  -0.432299 1.99825 14.6723
RightShoulder  1.54328 2.83311 17.8319
RightArm  -5.22596 -5.05139 59.6082
RightForeArm  25.0359 5.9139 13.7216
RightHand  -0.557298 -0.552463 -13.3652
LeftUpLeg  0.86705 7.33035 -2.90706
LeftLeg  13.3747 9.17352 1.62416
LeftFoot  -7.74465 0.147102 -3.17746
LeftToes  -3.13779e-010 -2.47553e-011 -5.36621e-011
73
root  3.89284 39.6548 4.25684 -92.0988 -85.9708 86.4321
RightUpLeg  -3.49121 2.9242 -16.826
RightLeg  20.5886 -9.45651 -4.10215
RightFoot  -0.719418 -1.18888 12.6918
RightToes  7.56698e-010 0 -3.6325e-017
Spine  9.06162 0.337614 -6.58535
Spine1  -0.0352398 0.296483 -5.75393
HEad  -4.05153 -7.50228 -1.08302
LeftShoulder1  2.64308 -6.31817 -20.4964
LeftArm  11.7521 -0.232618 -49.5946
LeftForeArm  -3.77062 -12.459 -12.6804
LeftHand  -0.447776 2.01143 15.2634
RightShoulder  1.54852 2.86323 17.7958
RightArm  -9.14168 -4.87132 59.3503
RightForeArm  28.7081 2.77663 13.9227
RightHand  -0.536861 -0.769664 -13.4577
LeftUpLeg  0.780086 7.274 -2.71803
LeftLeg  12.8748 9.22987 1.62423
LeftFoot  -7.53367 0.15391 -3.27991
LeftToes  -3.13779e-010 -2.47553e-011 -5.36621e-011
74
root  3.75866 39.6887 4.06842 -90.2664 -85.8831 85.2063
RightUpLeg  -2.33844 4.46587 -16.2497
RightLeg  18.0893 -11.9868 -4.52388
RightFoot  -1.24463 -1.23056 13.777
RightToes  7.56698e-010 0 -3.6325e-017
Spine  8.41884 0.300538 -6.3999
Spine1  -0.379071 0.392351 -6.03084
HEad  -2.98279 -8.25199 -1.11668
LeftShoulder1  2.60951 -6.23493 -20.3736
LeftArm  11.5285 0.077244 -49.3792
LeftForeArm  -3.72314 -12.5371 -12.6013
LeftHand  -0.459643 2.00205 15.6319
RightShoulder  1.5371 2.82768 17.7485
RightArm  -11.8941 -5.00116 59.0935
RightForeArm  30.8964 0.581297 13.687
RightHand  -0.483435 -1.02098 -12.7808
LeftUpLeg  0.553125 7.15791 -2.58705
LeftLeg  12.3882 9.14482 1.57134
LeftFoot  -7.29659 0.163676 -3.41777
LeftToes  -3.13779e-010 -2.47553e-011 -5.36621e-011
